<svg width="26" height="15" viewBox="0 0 26 15" fill="none" xmlns="http://www.w3.org/2000/svg">
<path d="M20.849 5.00004C20.2094 4.99754 19.5978 5.11547 19.0351 5.33187L16.0007 0.443086C15.9166 0.307568 15.7993 0.195753 15.6599 0.118218C15.5205 0.0406839 15.3637 -5.42798e-06 15.2042 5.43108e-10H12.7042C12.359 5.43108e-10 12.0792 0.279805 12.0792 0.625V1.25C12.0792 1.5952 12.359 1.875 12.7042 1.875H14.6826L15.2645 2.8125H10.8292V2.1875C10.8292 1.8423 10.5494 1.5625 10.2042 1.5625H6.78782C6.26278 1.5625 5.81997 1.99215 5.82938 2.51707C5.83845 3.0266 6.25423 3.4375 6.76669 3.4375H8.67005L7.52095 5.29375C6.99622 5.10508 6.43095 5.00145 5.84157 5C3.09841 4.99336 0.845204 7.22703 0.829189 9.97016C0.812978 12.7453 3.05782 15 5.82919 15C8.15895 15 10.1166 13.4065 10.6716 11.25H12.7042C12.8639 11.25 13.0209 11.2092 13.1604 11.1315C13.2999 11.0538 13.4172 10.9417 13.5013 10.806L16.8592 5.38164L17.4427 6.32176C16.4484 7.2377 15.8261 8.55148 15.8292 10.0107C15.8348 12.6995 18.0908 14.9736 20.7795 14.9997C23.5375 15.0265 25.7866 12.8199 25.8285 10.078C25.8709 7.30688 23.6205 5.01082 20.849 5.00004ZM8.12403 7.88172C8.50399 8.29301 8.77532 8.80598 8.8913 9.375H7.19966L8.12403 7.88172ZM5.82919 13.125C4.10606 13.125 2.70419 11.7231 2.70419 10C2.70419 8.27687 4.10606 6.875 5.82919 6.875C6.05845 6.875 6.28177 6.90051 6.49712 6.94762L4.71958 9.81906C4.3336 10.4425 4.78274 11.25 5.51669 11.25H8.69247C8.20927 12.3525 7.10802 13.125 5.82919 13.125ZM12.1819 9.375H10.7904C10.6357 8.13453 10.0265 7.03539 9.13477 6.24898L10.1014 4.6875H15.0837L12.1819 9.375ZM20.6607 13.1205C19.0577 13.036 17.7682 11.7263 17.7065 10.1223C17.6748 9.29727 17.9656 8.53957 18.4618 7.96359L20.1975 10.7599C20.3795 11.0532 20.7648 11.1434 21.0581 10.9613L21.5891 10.6318C21.8824 10.4497 21.9726 10.0644 21.7905 9.77113L20.0535 6.97258C20.3069 6.90768 20.5676 6.87491 20.8292 6.87504C22.5523 6.87504 23.9542 8.27691 23.9542 10C23.9542 11.7789 22.46 13.2155 20.6607 13.1205Z" fill="black"/>
</svg>
