<svg width="26" height="25" viewBox="0 0 26 25" fill="none" xmlns="http://www.w3.org/2000/svg">
<path d="M12.9385 0C6.24902 0 0.829102 5.41992 0.829102 12.1094C0.829102 18.7988 6.24902 24.2188 12.9385 24.2188C19.6279 24.2188 25.0479 18.7988 25.0479 12.1094C25.0479 5.41992 19.6279 0 12.9385 0ZM15.7266 17.0947L11.4199 13.9648C11.2686 13.8525 11.1807 13.6768 11.1807 13.4912V5.27344C11.1807 4.95117 11.4443 4.6875 11.7666 4.6875H14.1104C14.4326 4.6875 14.6963 4.95117 14.6963 5.27344V11.9971L17.7969 14.2529C18.0605 14.4434 18.1143 14.8096 17.9238 15.0732L16.5469 16.9678C16.3564 17.2266 15.9902 17.2852 15.7266 17.0947Z" fill="black"/>
</svg>
