<svg width="26" height="18" viewBox="0 0 26 18" fill="none" xmlns="http://www.w3.org/2000/svg">
<path d="M25.6302 4.8C18.7095 -1.60117 7.94587 -1.59883 1.0279 4.8C0.76774 5.04063 0.762662 5.44805 1.01422 5.69766L2.35172 7.02461C2.59157 7.26289 2.97751 7.26797 3.22672 7.03945C8.92672 1.81758 17.7306 1.81641 23.4318 7.03945C23.681 7.26797 24.067 7.2625 24.3068 7.02461L25.6443 5.69766C25.8955 5.44805 25.8904 5.04063 25.6302 4.8ZM13.3291 12.5C11.9482 12.5 10.8291 13.6191 10.8291 15C10.8291 16.3809 11.9482 17.5 13.3291 17.5C14.7099 17.5 15.8291 16.3809 15.8291 15C15.8291 13.6191 14.7099 12.5 13.3291 12.5ZM21.2459 9.23477C16.7435 5.25313 9.90954 5.25742 5.41227 9.23477C5.14274 9.47305 5.13415 9.88672 5.39001 10.1391L6.73532 11.4668C6.96969 11.698 7.34704 11.7137 7.59665 11.498C10.8759 8.66328 15.7896 8.66953 19.0611 11.498C19.3107 11.7137 19.6881 11.6984 19.9224 11.4668L21.2677 10.1391C21.524 9.88672 21.515 9.47266 21.2459 9.23477Z" fill="black"/>
</svg>
