<?xml version="1.0" standalone="no"?>
<!DOCTYPE svg PUBLIC "-//W3C//DTD SVG 20010904//EN"
 "http://www.w3.org/TR/2001/REC-SVG-20010904/DTD/svg10.dtd">
<svg version="1.0" xmlns="http://www.w3.org/2000/svg"
 width="88.000000pt" height="56.000000pt" viewBox="0 0 88.000000 56.000000"
 preserveAspectRatio="xMidYMid meet">

<g transform="translate(0.000000,56.000000) scale(0.100000,-0.100000)"
fill="#000000" stroke="none">
<path d="M91 556 c10 -10 243 -146 251 -146 4 0 8 34 8 75 l0 75 -132 0 c-72
0 -129 -2 -127 -4z"/>
<path d="M388 448 l-3 -113 -192 -3 -193 -2 0 -50 0 -50 193 -2 192 -3 3 -113
3 -112 49 0 49 0 3 112 3 113 193 3 192 2 0 50 0 50 -192 2 -193 3 -3 113 -3
112 -49 0 -49 0 -3 -112z"/>
<path d="M530 485 c0 -41 4 -75 8 -75 6 0 239 135 251 146 2 2 -55 4 -127 4
l-132 0 0 -75z"/>
<path d="M688 472 c-81 -48 -148 -90 -148 -94 0 -5 10 -8 23 -8 24 0 317 168
317 182 0 23 -60 -2 -192 -80z"/>
<path d="M0 522 c0 -25 206 -152 245 -152 15 0 24 4 21 9 -4 6 -196 124 -258
158 -5 2 -8 -5 -8 -15z"/>
<path d="M0 420 l0 -50 87 0 c47 0 84 2 82 4 -12 11 -155 96 -161 96 -5 0 -8
-22 -8 -50z"/>
<path d="M793 427 c-40 -24 -75 -46 -79 -50 -4 -4 32 -7 79 -7 l87 0 0 50 c0
28 -3 50 -7 50 -5 -1 -40 -20 -80 -43z"/>
<path d="M0 140 c0 -27 2 -50 5 -50 9 0 165 91 165 96 0 2 -38 4 -85 4 l-85 0
0 -50z"/>
<path d="M147 103 c-81 -48 -147 -91 -147 -95 0 -23 56 1 190 79 82 49 150 91
150 96 0 23 -63 -3 -193 -80z"/>
<path d="M614 181 c4 -6 196 -124 259 -158 4 -2 7 5 7 15 0 25 -206 152 -245
152 -15 0 -24 -4 -21 -9z"/>
<path d="M711 186 c12 -11 155 -96 161 -96 5 0 8 23 8 50 l0 50 -87 0 c-47 0
-84 -2 -82 -4z"/>
<path d="M215 79 c-66 -39 -122 -73 -124 -75 -2 -2 55 -4 127 -4 l132 0 0 75
c0 41 -4 75 -8 75 -4 0 -61 -32 -127 -71z"/>
<path d="M530 75 l0 -75 132 0 c72 0 129 2 127 4 -10 10 -243 146 -251 146 -4
0 -8 -34 -8 -75z"/>
</g>
</svg>
