<?xml version="1.0" encoding="UTF-8"?>
<!-- Generator: Adobe Illustrator 16.0.4, SVG Export Plug-In . SVG Version: 6.00 Build 0)  -->
<!DOCTYPE svg PUBLIC "-//W3C//DTD SVG 1.1//EN" "http://www.w3.org/Graphics/SVG/1.1/DTD/svg11.dtd">
<svg version="1.1" id="Layer_2" xmlns="http://www.w3.org/2000/svg" xmlns:xlink="http://www.w3.org/1999/xlink" x="0px" y="0px" width="455px" height="50px" viewBox="0 0 455 50" enable-background="new 0 0 455 50" xml:space="preserve">
<g>
	<g>
		<path fill="#FFFFFF" d="M155.039,40.191l-4.307-11.969l-0.078,0.068c0.039,1.412,0.115,2.82,0.115,4.234v7.664h-7.787V11.447h7.52    c6.754,0,11.639,1.98,11.639,9.562c0,3.17-1.373,5.988-4.463,7.214l5.799,11.969H155.039z M151.266,24.751    c2.061,0,3.168-1.795,3.168-3.657c0-2.519-1.529-3.588-3.664-3.478v7.096L151.266,24.751z"/>
		<path fill="#FFFFFF" d="M176.182,40.191V30.011c0-1.718-0.076-2.94-1.369-2.94c-1.49,0-1.57,1.57-1.57,3.438v9.686h-7.475V9.803    h7.475l-0.039,10.94c0,1.035-0.109,2.023-0.148,3.056l0.074,0.067c0.727-2.164,2.672-4.227,5.15-4.227    c4.316,0,5.381,3.662,5.381,7.279v13.271L176.182,40.191L176.182,40.191z"/>
		<path fill="#FFFFFF" d="M205.373,40.191h-7.475l0.34-3.32l-0.076-0.076c-0.951,2.145-2.705,3.82-5.139,3.82    c-5.199,0-6.193-6.756-6.193-10.678c0-3.967,1.182-10.297,6.33-10.297c2.414,0,3.896,1.606,4.85,3.584l0.076-0.074l-0.307-3.088    h7.594V40.191L205.373,40.191z M197.67,32.602c0.229-1.026,0.229-2.172,0.229-2.744c0-0.532,0.035-1.522-0.156-2.438    c-0.189-0.875-0.572-1.643-1.449-1.643c-0.916,0-1.338,0.92-1.564,2.018c-0.191,1.076-0.191,2.33-0.191,2.979    c0,0.578,0.045,1.49,0.229,2.3c0.189,0.752,0.574,1.358,1.297,1.358C197.021,34.432,197.475,33.591,197.67,32.602z"/>
		<path fill="#FFFFFF" d="M226.746,33.367c-0.84,4.652-4.385,7.248-8.891,7.248c-6.223,0-9.312-4.201-9.312-10.108    c0-5.755,3.318-10.866,9.5-10.866c3.094,0,5.338,1.299,6.795,3.281c1.947,2.63,2.176,5.605,2.176,8.766h-10.99    c0,1.187,0.191,3.086,1.758,3.086c0.84,0,1.486-0.604,1.637-1.405L226.746,33.367L226.746,33.367z M219.494,27.641    c-0.035-1.097-0.461-2.551-1.793-2.551c-1.258,0-1.715,1.523-1.678,2.551H219.494z"/>
		<path fill="#FFFFFF" d="M231.895,40.191V26.051h-2.133v-5.989h2.133v-5.91h7.479v5.91h2.484v5.989h-2.484v14.141H231.895    L231.895,40.191z"/>
		<path fill="#FFFFFF" d="M244.572,13.732c0-2.355,1.939-4.348,4.307-4.348c2.404,0,4.424,1.873,4.424,4.307    c0,2.408-1.902,4.426-4.346,4.426C246.553,18.117,244.572,16.169,244.572,13.732z M245.176,40.191V20.062h7.486v20.129H245.176z"/>
		<path fill="#FFFFFF" d="M274.371,40.191h-7.486l0.354-3.32l-0.085-0.076c-0.952,2.145-2.706,3.82-5.146,3.82    c-5.197,0-6.182-6.756-6.182-10.678c0-3.967,1.178-10.297,6.336-10.297c2.396,0,3.889,1.606,4.844,3.584l0.074-0.074l-0.307-3.088    h7.598V40.191L274.371,40.191z M266.654,32.602c0.229-1.026,0.229-2.172,0.229-2.744c0-0.532,0.041-1.522-0.148-2.438    c-0.188-0.875-0.566-1.643-1.441-1.643c-0.924,0-1.344,0.92-1.57,2.018c-0.188,1.076-0.188,2.33-0.188,2.979    c0,0.578,0.037,1.49,0.223,2.3c0.191,0.752,0.578,1.358,1.303,1.358C266.006,34.432,266.471,33.591,266.654,32.602z"/>
		<path fill="#FFFFFF" d="M285.705,23.799l0.08,0.067c0.715-2.164,2.66-4.227,5.148-4.227c4.309,0,5.379,3.662,5.379,7.279v13.271    h-7.48V30.01c0-1.718-0.121-2.941-1.369-2.941c-1.449,0-1.574,1.384-1.574,3.438v9.687h-7.477V20.062h7.477L285.705,23.799z"/>
		<path fill="#FFFFFF" d="M324.209,40.191l-4.318-11.969l-0.074,0.068c0.035,1.412,0.115,2.82,0.115,4.234v7.664h-7.777V11.447h7.51    c6.754,0,11.645,1.98,11.645,9.562c0,3.17-1.372,5.988-4.469,7.214l5.801,11.969H324.209z M320.434,24.751    c2.062,0,3.16-1.795,3.16-3.657c0-2.519-1.516-3.588-3.662-3.478v7.096L320.434,24.751z"/>
		<path fill="#FFFFFF" d="M352.594,40.191h-7.477l0.338-3.32l-0.076-0.076c-0.951,2.145-2.701,3.82-5.146,3.82    c-5.184,0-6.186-6.756-6.186-10.678c0-3.967,1.188-10.297,6.338-10.297c2.404,0,3.896,1.606,4.85,3.584l0.072-0.074l-0.303-3.088    h7.588L352.594,40.191L352.594,40.191z M344.889,32.602c0.229-1.026,0.229-2.172,0.229-2.744c0-0.532,0.047-1.522-0.154-2.438    c-0.188-0.875-0.562-1.643-1.449-1.643c-0.906,0-1.334,0.92-1.557,2.018c-0.201,1.076-0.201,2.33-0.201,2.979    c0,0.578,0.047,1.49,0.234,2.3c0.188,0.752,0.564,1.358,1.295,1.358C344.238,34.432,344.701,33.591,344.889,32.602z"/>
		<path fill="#FFFFFF" d="M356.025,13.732c0-2.355,1.955-4.348,4.322-4.348c2.406,0,4.432,1.873,4.432,4.307    c0,2.408-1.92,4.426-4.359,4.426C358.021,18.117,356.025,16.169,356.025,13.732z M356.633,40.191V20.062h7.494v20.129H356.633z"/>
		<path fill="#FFFFFF" d="M368.166,40.191V9.803h7.475v30.388H368.166L368.166,40.191z"/>
		<path fill="#FFFFFF" d="M394.418,40.191l-1.479-12.045h-0.09l-2.25,12.045h-7.326l-5.031-20.129h7.365l1.1,7.319    c0.227,1.604,0.504,3.202,0.646,4.807h0.09c0.332-1.604,0.49-3.201,0.838-4.807l1.521-7.319h6.369l1.035,7.319    c0.225,1.604,0.455,3.202,0.609,4.807h0.08c0.34-1.604,0.488-3.201,0.834-4.807l1.492-7.319h7.473l-5.871,20.129H394.418z"/>
		<path fill="#FFFFFF" d="M427.961,40.191h-7.479l0.348-3.32l-0.076-0.076c-0.957,2.145-2.707,3.82-5.152,3.82    c-5.188,0-6.186-6.756-6.186-10.678c0-3.967,1.18-10.297,6.336-10.297c2.402,0,3.889,1.606,4.844,3.584l0.084-0.074l-0.305-3.088    h7.588L427.961,40.191L427.961,40.191z M420.256,32.602c0.227-1.026,0.227-2.172,0.227-2.744c0-0.532,0.043-1.522-0.15-2.438    c-0.193-0.875-0.564-1.643-1.453-1.643c-0.916,0-1.336,0.92-1.564,2.018c-0.186,1.076-0.186,2.33-0.186,2.979    c0,0.578,0.035,1.49,0.229,2.3c0.188,0.752,0.568,1.358,1.299,1.358C419.619,34.432,420.061,33.591,420.256,32.602z"/>
		<path fill="#FFFFFF" d="M433.113,49.193l3.432-9.846l-5.992-19.287h7.521l1.453,6.936c0.305,1.485,0.58,3.013,0.869,4.498h0.084    c0.268-1.485,0.381-3.013,0.721-4.498l1.57-6.936h7.477l-9.387,29.13L433.113,49.193L433.113,49.193z"/>
	</g>
	<g>
		<path fill="#FFFFFF" d="M65.855,24.949c0.828-1.68,8.271-2.756,8.35,0.984v4.901h-5.109v-4.114    c-0.188-1.643-3.365-0.992-3.26,0.277v3.848h-5.043V20.812h5.062V24.949L65.855,24.949z"/>
		<rect x="94.209" y="20.809" fill="#FFFFFF" width="31.799" height="10.041"/>
		<path fill="#FFFFFF" d="M126.016,17.928H43.354l-7.686,7.734l5.141,5.188H30.95l-3.127-2.91c-1.18-1.183-1.18-3.106,0-4.285    l9.455-9.723c1.188-1.439,3.031-2.451,5.016-2.451h83.723L126.016,17.928L126.016,17.928z"/>
		<path fill="#FFFFFF" d="M96.346,40.211c1.852-0.02,3.775-0.711,5.029-2.26l4.193-4.235H5v6.495H96.346z"/>
		<path fill="#FFFFFF" d="M55.074,20.79c4.459,0.021,4.021,5.92,0.221,5.907l-0.127-0.008l3.824,4.152h-6.428l-2.861-3.962v3.962    h-4.898V20.79H55.074z M49.723,23.1v2.444h2.414c1.592,0,1.496-2.444,0.023-2.444H49.723z"/>
		<path fill="#FFFFFF" d="M87.859,25.593c3.74-0.418,3.209-4.795-0.816-4.795h-9.781v10.062h10.371    C92.107,30.848,92.166,25.798,87.859,25.593z M84.754,22.62c1.236,0,1.236,1.959,0.012,1.959h-2.604V22.62H84.754z M84.785,28.757    h-2.621v-2.144h2.596C86.004,26.613,86.008,28.757,84.785,28.757z"/>
	</g>
</g>
</svg>