<svg width="42" height="37" viewBox="0 0 42 37" fill="none" xmlns="http://www.w3.org/2000/svg">
<path d="M38.5088 21.775L41.9557 6.74376C42.2046 5.65847 41.3723 4.625 40.2493 4.625H11.6089L10.9406 1.38678C10.774 0.579643 10.0574 0 9.22607 0H1.75C0.78349 0 0 0.776494 0 1.73438V2.89062C0 3.84851 0.78349 4.625 1.75 4.625H6.84564L11.9679 29.4435C10.7424 30.142 9.91667 31.4516 9.91667 32.9531C9.91667 35.1882 11.7448 37 14 37C16.2552 37 18.0833 35.1882 18.0833 32.9531C18.0833 31.8204 17.6132 30.7971 16.8566 30.0625H32.1433C31.3868 30.7971 30.9167 31.8204 30.9167 32.9531C30.9167 35.1882 32.7448 37 35 37C37.2552 37 39.0833 35.1882 39.0833 32.9531C39.0833 31.3509 38.1436 29.9662 36.7807 29.3106L37.183 27.5563C37.4318 26.471 36.5995 25.4375 35.4765 25.4375H15.9044L15.4271 23.125H36.8023C37.6194 23.125 38.3277 22.5647 38.5088 21.775Z" fill="white"/>
</svg>
