<svg width="23" height="25" viewBox="0 0 23 25" fill="none" xmlns="http://www.w3.org/2000/svg">
<path d="M22.7041 4.6875V17.1875C22.7041 19.7175 19.6951 21.875 16.3554 21.875L19.4306 24.3028C19.7209 24.5321 19.5577 25 19.1885 25H4.34473C3.97471 25 3.81289 24.5315 4.10269 24.3028L7.17783 21.875C3.84766 21.875 0.829102 19.7243 0.829102 17.1875V4.6875C0.829102 2.09868 3.9541 0 7.0791 0H16.4541C19.6279 0 22.7041 2.09868 22.7041 4.6875ZM20.3604 11.3281V5.85938C20.3604 5.21216 19.8357 4.6875 19.1885 4.6875H4.34473C3.69751 4.6875 3.17285 5.21216 3.17285 5.85938V11.3281C3.17285 11.9753 3.69751 12.5 4.34473 12.5H19.1885C19.8357 12.5 20.3604 11.9753 20.3604 11.3281ZM11.7666 14.4531C10.2564 14.4531 9.03223 15.6773 9.03223 17.1875C9.03223 18.6977 10.2564 19.9219 11.7666 19.9219C13.2768 19.9219 14.501 18.6977 14.501 17.1875C14.501 15.6773 13.2768 14.4531 11.7666 14.4531Z" fill="black"/>
</svg>
