<svg width="33" height="36" viewBox="0 0 33 36" fill="none" xmlns="http://www.w3.org/2000/svg">
<g clip-path="url(#clip0_14_158)">
<rect width="33" height="36" fill="white"/>
<path d="M29.3906 15.75H20.1094C19.2521 15.75 18.5625 14.9977 18.5625 14.0625V3.9375C18.5625 3.25547 18.9363 2.63672 19.5164 2.37656C20.0965 2.11641 20.7604 2.25703 21.2051 2.74219L23.7832 5.55469L28.5076 0.400781C28.7461 0.140625 29.0619 0 29.3906 0C29.7193 0 30.0352 0.140625 30.2736 0.400781L32.6391 2.98125C32.8711 3.23438 33 3.57891 33 3.9375C33 4.29609 32.8711 4.64062 32.6326 4.90078L27.9082 10.0547L30.4863 12.8672C30.9311 13.3523 31.06 14.0766 30.8215 14.7094C30.583 15.3422 30.0158 15.75 29.3906 15.75ZM29.3906 20.25C30.0158 20.25 30.583 20.6578 30.8215 21.2906C31.06 21.9234 30.9311 22.6477 30.4863 23.1328L27.9082 25.9453L32.6391 31.1062C32.8711 31.3594 33.0064 31.7039 33.0064 32.0695C33.0064 32.4352 32.8775 32.7727 32.6391 33.0328L30.2736 35.6133C30.0352 35.8594 29.7193 36 29.3906 36C29.0619 36 28.7461 35.8594 28.5076 35.5992L23.7832 30.4453L21.2051 33.2578C20.7604 33.743 20.0965 33.8836 19.5164 33.6234C18.9363 33.3633 18.5625 32.7445 18.5625 32.0625V21.9375C18.5625 21.0023 19.2521 20.25 20.1094 20.25H29.3906ZM12.8906 20.25C13.7479 20.25 14.4375 21.0023 14.4375 21.9375V32.0625C14.4375 32.7445 14.0637 33.3633 13.4836 33.6234C12.9035 33.8836 12.2396 33.743 11.7949 33.2578L9.2168 30.4453L4.49238 35.5992C4.25391 35.8594 3.93809 36 3.60938 36C3.28066 36 2.96484 35.8594 2.72637 35.5992L0.367383 33.0258C0.128906 32.7656 0 32.4211 0 32.0625C0 31.7039 0.128906 31.3594 0.367383 31.0992L5.0918 25.9453L2.51367 23.1328C2.06895 22.6477 1.94004 21.9234 2.17852 21.2906C2.41699 20.6578 2.98418 20.25 3.60938 20.25H12.8906ZM3.60938 15.75C2.98418 15.75 2.41699 15.3422 2.17852 14.7094C1.94004 14.0766 2.06895 13.3523 2.51367 12.8672L5.0918 10.0547L0.367383 4.90078C0.128906 4.64062 0 4.29609 0 3.9375C0 3.57891 0.128906 3.23438 0.367383 2.97422L2.72637 0.400781C2.96484 0.140625 3.28066 0 3.60938 0C3.93809 0 4.25391 0.140625 4.49238 0.400781L9.2168 5.55469L11.7949 2.74219C12.2396 2.25703 12.9035 2.11641 13.4836 2.37656C14.0637 2.63672 14.4375 3.25547 14.4375 3.9375V14.0625C14.4375 14.9977 13.7479 15.75 12.8906 15.75H3.60938Z" fill="black"/>
</g>
<defs>
<clipPath id="clip0_14_158">
<rect width="33" height="36" fill="white"/>
</clipPath>
</defs>
</svg>
