<svg width="23" height="22" viewBox="0 0 23 22" fill="none" xmlns="http://www.w3.org/2000/svg">
<path d="M13.4048 19.895L12.3208 20.979C11.8618 21.438 11.1196 21.438 10.6655 20.979L1.17334 11.4917C0.714355 11.0327 0.714355 10.2905 1.17334 9.83643L10.6655 0.344238C11.1245 -0.114746 11.8667 -0.114746 12.3208 0.344238L13.4048 1.42822C13.8687 1.89209 13.8589 2.64893 13.3853 3.10303L7.50147 8.7085H21.5347C22.1841 8.7085 22.7065 9.23096 22.7065 9.88037V11.4429C22.7065 12.0923 22.1841 12.6147 21.5347 12.6147H7.50147L13.3853 18.2202C13.8638 18.6743 13.8735 19.4312 13.4048 19.895Z" fill="white"/>
</svg>
