<svg width="22" height="25" viewBox="0 0 22 25" fill="none" xmlns="http://www.w3.org/2000/svg">
<path d="M14.1104 4.6875C15.4048 4.6875 16.4541 3.63818 16.4541 2.34375C16.4541 1.04932 15.4048 0 14.1104 0C12.8159 0 11.7666 1.04932 11.7666 2.34375C11.7666 3.63818 12.8159 4.6875 14.1104 4.6875ZM6.38037 15.5015L5.65771 17.187H2.3916C1.52881 17.187 0.829102 17.8867 0.829102 18.7495C0.829102 19.6123 1.52881 20.312 2.3916 20.312H6.17334C7.11328 20.312 7.95947 19.7534 8.32715 18.8916L8.75635 17.8896L8.23535 17.582C7.38965 17.0825 6.76758 16.3433 6.38037 15.5015ZM19.5791 10.937H17.4292L16.1567 8.33691C15.5464 7.08936 14.4258 6.17725 13.1401 5.84961L9.66943 4.81738C8.2876 4.48535 6.84863 4.79053 5.72217 5.6543L3.78516 7.13916C3.1001 7.66406 2.97021 8.64453 3.49609 9.32959C4.02197 10.0146 5.00195 10.1431 5.68652 9.61865L7.62451 8.13379C7.99902 7.84619 8.47607 7.74316 8.8584 7.83398L9.57617 8.04736L7.74707 12.3145C7.13086 13.7539 7.68311 15.4399 9.03125 16.2358L13.1807 18.6855L11.8394 22.9692C11.5815 23.7925 12.04 24.6689 12.8633 24.9268C13.019 24.9756 13.1763 24.999 13.3311 24.999C13.9956 24.999 14.6118 24.5708 14.8213 23.9028L16.3662 18.9683C16.6548 17.9541 16.2251 16.8647 15.3096 16.3125L12.3193 14.5479L13.8481 10.7256L14.8379 12.7485C15.2285 13.5464 16.0547 14.0615 16.9429 14.0615H19.5791C20.4419 14.0615 21.1416 13.3618 21.1416 12.499C21.1416 11.6362 20.4419 10.937 19.5791 10.937Z" fill="black"/>
</svg>
