<svg width="455" height="50" viewBox="0 0 455 50" fill="none" xmlns="http://www.w3.org/2000/svg">
<path d="M155.039 40.191L150.732 28.222L150.654 28.29C150.693 29.702 150.769 31.11 150.769 32.524V40.188H142.982V11.447H150.502C157.256 11.447 162.141 13.427 162.141 21.009C162.141 24.179 160.768 26.997 157.678 28.223L163.477 40.192L155.039 40.191ZM151.266 24.751C153.327 24.751 154.434 22.956 154.434 21.094C154.434 18.575 152.905 17.506 150.77 17.616V24.712L151.266 24.751Z" fill="white"/>
<path d="M176.182 40.191V30.011C176.182 28.293 176.106 27.071 174.813 27.071C173.323 27.071 173.243 28.641 173.243 30.509V40.195H165.768V9.80298H173.243L173.204 20.743C173.204 21.778 173.095 22.766 173.056 23.799L173.13 23.866C173.857 21.702 175.802 19.639 178.28 19.639C182.596 19.639 183.661 23.301 183.661 26.918V40.189L176.182 40.191Z" fill="white"/>
<path d="M205.373 40.191H197.898L198.238 36.871L198.162 36.795C197.211 38.94 195.457 40.615 193.023 40.615C187.824 40.615 186.83 33.859 186.83 29.937C186.83 25.97 188.012 19.64 193.16 19.64C195.574 19.64 197.056 21.246 198.01 23.224L198.086 23.15L197.779 20.062H205.373V40.191ZM197.67 32.602C197.899 31.576 197.899 30.43 197.899 29.858C197.899 29.326 197.934 28.336 197.743 27.42C197.554 26.545 197.171 25.777 196.294 25.777C195.378 25.777 194.956 26.697 194.73 27.795C194.539 28.871 194.539 30.125 194.539 30.774C194.539 31.352 194.584 32.264 194.768 33.074C194.957 33.826 195.342 34.432 196.065 34.432C197.021 34.432 197.475 33.591 197.67 32.602Z" fill="white"/>
<path d="M226.746 33.367C225.906 38.019 222.361 40.615 217.855 40.615C211.632 40.615 208.543 36.414 208.543 30.507C208.543 24.752 211.861 19.641 218.043 19.641C221.137 19.641 223.381 20.94 224.838 22.922C226.785 25.552 227.014 28.527 227.014 31.688H216.024C216.024 32.875 216.215 34.774 217.782 34.774C218.622 34.774 219.268 34.17 219.419 33.369L226.746 33.367ZM219.494 27.641C219.459 26.544 219.033 25.09 217.701 25.09C216.443 25.09 215.986 26.613 216.023 27.641H219.494Z" fill="white"/>
<path d="M231.895 40.191V26.051H229.762V20.062H231.895V14.152H239.374V20.062H241.858V26.051H239.374V40.192L231.895 40.191Z" fill="white"/>
<path d="M244.572 13.732C244.572 11.377 246.511 9.38397 248.879 9.38397C251.283 9.38397 253.303 11.257 253.303 13.691C253.303 16.099 251.401 18.117 248.957 18.117C246.553 18.117 244.572 16.169 244.572 13.732ZM245.176 40.191V20.062H252.662V40.191H245.176Z" fill="white"/>
<path d="M274.371 40.191H266.885L267.239 36.871L267.154 36.795C266.202 38.94 264.448 40.615 262.008 40.615C256.811 40.615 255.826 33.859 255.826 29.937C255.826 25.97 257.004 19.64 262.162 19.64C264.558 19.64 266.051 21.246 267.006 23.224L267.08 23.15L266.773 20.062H274.371V40.191ZM266.654 32.602C266.883 31.576 266.883 30.43 266.883 29.858C266.883 29.326 266.924 28.336 266.735 27.42C266.547 26.545 266.169 25.777 265.294 25.777C264.37 25.777 263.95 26.697 263.724 27.795C263.536 28.871 263.536 30.125 263.536 30.774C263.536 31.352 263.573 32.264 263.759 33.074C263.95 33.826 264.337 34.432 265.062 34.432C266.006 34.432 266.471 33.591 266.654 32.602Z" fill="white"/>
<path d="M285.705 23.799L285.785 23.866C286.5 21.702 288.445 19.639 290.933 19.639C295.242 19.639 296.312 23.301 296.312 26.918V40.189H288.832V30.01C288.832 28.292 288.711 27.069 287.463 27.069C286.014 27.069 285.889 28.453 285.889 30.507V40.194H278.412V20.062H285.889L285.705 23.799Z" fill="white"/>
<path d="M324.209 40.191L319.891 28.222L319.817 28.29C319.852 29.702 319.932 31.11 319.932 32.524V40.188H312.155V11.447H319.665C326.419 11.447 331.31 13.427 331.31 21.009C331.31 24.179 329.938 26.997 326.841 28.223L332.642 40.192L324.209 40.191ZM320.434 24.751C322.496 24.751 323.594 22.956 323.594 21.094C323.594 18.575 322.078 17.506 319.932 17.616V24.712L320.434 24.751Z" fill="white"/>
<path d="M352.594 40.191H345.117L345.455 36.871L345.379 36.795C344.428 38.94 342.678 40.615 340.233 40.615C335.049 40.615 334.047 33.859 334.047 29.937C334.047 25.97 335.235 19.64 340.385 19.64C342.789 19.64 344.281 21.246 345.235 23.224L345.307 23.15L345.004 20.062H352.592L352.594 40.191ZM344.889 32.602C345.118 31.576 345.118 30.43 345.118 29.858C345.118 29.326 345.165 28.336 344.964 27.42C344.776 26.545 344.402 25.777 343.515 25.777C342.609 25.777 342.181 26.697 341.958 27.795C341.757 28.871 341.757 30.125 341.757 30.774C341.757 31.352 341.804 32.264 341.991 33.074C342.179 33.826 342.555 34.432 343.286 34.432C344.238 34.432 344.701 33.591 344.889 32.602Z" fill="white"/>
<path d="M356.025 13.732C356.025 11.377 357.98 9.38397 360.347 9.38397C362.753 9.38397 364.779 11.257 364.779 13.691C364.779 16.099 362.859 18.117 360.42 18.117C358.021 18.117 356.025 16.169 356.025 13.732ZM356.633 40.191V20.062H364.127V40.191H356.633Z" fill="white"/>
<path d="M368.166 40.191V9.80298H375.641V40.191H368.166Z" fill="white"/>
<path d="M394.418 40.191L392.939 28.146H392.849L390.599 40.191H383.273L378.242 20.062H385.607L386.707 27.381C386.934 28.985 387.211 30.583 387.353 32.188H387.443C387.775 30.584 387.933 28.987 388.281 27.381L389.802 20.062H396.171L397.206 27.381C397.431 28.985 397.661 30.583 397.815 32.188H397.895C398.235 30.584 398.383 28.987 398.729 27.381L400.221 20.062H407.694L401.823 40.191H394.418Z" fill="white"/>
<path d="M427.961 40.191H420.482L420.83 36.871L420.754 36.795C419.797 38.94 418.047 40.615 415.602 40.615C410.414 40.615 409.416 33.859 409.416 29.937C409.416 25.97 410.596 19.64 415.752 19.64C418.154 19.64 419.641 21.246 420.596 23.224L420.68 23.15L420.375 20.062H427.963L427.961 40.191ZM420.256 32.602C420.483 31.576 420.483 30.43 420.483 29.858C420.483 29.326 420.526 28.336 420.333 27.42C420.14 26.545 419.769 25.777 418.88 25.777C417.964 25.777 417.544 26.697 417.316 27.795C417.13 28.871 417.13 30.125 417.13 30.774C417.13 31.352 417.165 32.264 417.359 33.074C417.547 33.826 417.927 34.432 418.658 34.432C419.619 34.432 420.061 33.591 420.256 32.602Z" fill="white"/>
<path d="M433.113 49.193L436.545 39.347L430.553 20.06H438.074L439.527 26.996C439.832 28.481 440.107 30.009 440.396 31.494H440.48C440.748 30.009 440.861 28.481 441.201 26.996L442.771 20.06H450.248L440.861 49.19L433.113 49.193Z" fill="white"/>
<path d="M65.855 24.9489C66.683 23.2689 74.126 22.193 74.205 25.933V30.834H69.096V26.7199C68.908 25.0769 65.731 25.728 65.836 26.997V30.8449H60.793V20.812H65.855V24.9489Z" fill="white"/>
<path d="M126.008 20.809H94.209V30.85H126.008V20.809Z" fill="white"/>
<path d="M126.016 17.928H43.354L35.668 25.662L40.809 30.85H30.95L27.823 27.94C26.643 26.757 26.643 24.834 27.823 23.655L37.278 13.932C38.466 12.493 40.309 11.481 42.294 11.481H126.017L126.016 17.928Z" fill="white"/>
<path d="M96.346 40.2109C98.198 40.1909 100.121 39.4999 101.375 37.9509L105.568 33.7159H5V40.2109H96.346Z" fill="white"/>
<path d="M55.074 20.79C59.533 20.811 59.095 26.71 55.295 26.697L55.168 26.689L58.992 30.841H52.564L49.703 26.879V30.841H44.805V20.79H55.074ZM49.723 23.1V25.544H52.137C53.729 25.544 53.633 23.1 52.16 23.1H49.723Z" fill="white"/>
<path d="M87.859 25.593C91.599 25.175 91.068 20.798 87.043 20.798H77.262V30.86H87.633C92.107 30.848 92.166 25.798 87.859 25.593ZM84.754 22.62C85.99 22.62 85.99 24.579 84.766 24.579H82.162V22.62H84.754ZM84.785 28.757H82.164V26.613H84.76C86.004 26.613 86.008 28.757 84.785 28.757Z" fill="white"/>
</svg>
